<svg xmlns="http://www.w3.org/2000/svg" viewBox="0 0 800 220" width="800" height="220" role="img" aria-label="LogOcean — multi-source log parser, indexer and long-term store">
  <defs>
    <linearGradient id="bg" x1="0" y1="0" x2="1" y2="1">
      <stop offset="0" stop-color="#0f172a"/>
      <stop offset="1" stop-color="#111827"/>
    </linearGradient>
    <linearGradient id="accent" x1="0" y1="0" x2="1" y2="1">
      <stop offset="0" stop-color="#38bdf8"/>
      <stop offset="1" stop-color="#22c55e"/>
    </linearGradient>
    <style>
      .title { font: 800 54px system-ui,-apple-system,Segoe UI,Roboto,sans-serif; fill: url(#accent); }
      .sub   { font: 500 18px system-ui,-apple-system,Segoe UI,Roboto,sans-serif; fill: #cbd5e1; }
      .chip  { font: 600 12px system-ui,-apple-system,Segoe UI,Roboto,sans-serif; fill: #94a3b8; }
      .mono  { font: 12px ui-monospace,SFMono-Regular,Menlo,monospace; fill: #334155; }
    </style>
  </defs>

  <!-- backdrop -->
  <rect x="0" y="0" width="800" height="220" rx="16" fill="url(#bg)"/>
  <rect x="0.5" y="0.5" width="799" height="219" rx="16" fill="none" stroke="#1e293b"/>

  <!-- faint log lines (decorative; one per domain) -->
  <g opacity="0.55">
    <text class="mono" x="455" y="30">10:00Z  aws  ConsoleLogin  failure</text>
    <text class="mono" x="455" y="48">10:01  %ASA-2-106023  Deny tcp</text>
    <text class="mono" x="455" y="66">10:02  suricata  alert  blocked</text>
    <text class="mono" x="455" y="84">10:03  okta  login_failed  jdoe</text>
  </g>

  <!-- shield + magnifier emblem -->
  <g transform="translate(40,52)">
    <path d="M44 4 L84 20 L84 64 C84 99 66 120 44 130 C22 120 4 99 4 64 L4 20 Z"
          fill="url(#accent)"/>
    <path d="M44 4 L84 20 L84 64 C84 99 66 120 44 130 C22 120 4 99 4 64 L4 20 Z"
          fill="#0f172a" opacity="0.08"/>
    <!-- magnifier (search) -->
    <circle cx="38" cy="56" r="18" fill="none" stroke="#04293a" stroke-width="6"/>
    <line x1="51" y1="69" x2="66" y2="84" stroke="#04293a" stroke-width="7" stroke-linecap="round"/>
  </g>

  <!-- wordmark -->
  <text class="title" x="150" y="98">LogOcean</text>
  <text class="sub" x="152" y="128">Parse · index · store — network, endpoint, cloud &amp; identity logs</text>

  <!-- chips -->
  <g transform="translate(150,150)">
    <g>
      <rect x="0" y="0" width="92" height="28" rx="14" fill="#042f3a" stroke="#38bdf8"/>
      <text class="chip" x="14" y="18" fill="#38bdf8">23 parsers</text>
    </g>
    <g transform="translate(102,0)">
      <rect x="0" y="0" width="270" height="28" rx="14" fill="#1e293b" stroke="#334155"/>
      <text class="chip" x="14" y="18" textLength="244" lengthAdjust="spacingAndGlyphs">Network · Endpoint · Cloud · Identity</text>
    </g>
    <g transform="translate(382,0)">
      <rect x="0" y="0" width="96" height="28" rx="14" fill="#1e293b" stroke="#334155"/>
      <text class="chip" x="14" y="18">PostgreSQL</text>
    </g>
    <g transform="translate(488,0)">
      <rect x="0" y="0" width="148" height="28" rx="14" fill="#052e1a" stroke="#22c55e"/>
      <text class="chip" x="14" y="18" fill="#22c55e">≥ 3-year retention</text>
    </g>
  </g>
</svg>
